<?xml version="1.0" encoding="utf-8"?>
<!-- Generator: Adobe Illustrator 16.0.3, SVG Export Plug-In . SVG Version: 6.00 Build 0)  -->
<!DOCTYPE svg PUBLIC "-//W3C//DTD SVG 1.1//EN" "http://www.w3.org/Graphics/SVG/1.1/DTD/svg11.dtd">
<svg version="1.1" id="Layer_1" xmlns="http://www.w3.org/2000/svg" xmlns:xlink="http://www.w3.org/1999/xlink" x="0px" y="0px"
	 width="85px" height="45px" viewBox="0 0 85 45" enable-background="new 0 0 85 45" xml:space="preserve">
<path fill-rule="evenodd" clip-rule="evenodd" fill="#BFBFBF" d="M56.719,16.873l-9.691-0.683l-3.695-9.012
	c-0.537-1.229-2.176-1.229-2.732,0l-3.677,9.012l-9.701,0.683c-1.367,0.137-1.926,1.904-0.839,2.724l7.463,6.016l-2.393,9.424
	c-0.282,1.228,1.075,2.32,2.172,1.638l8.37-5.189l8.291,5.189c1.087,0.683,2.46-0.273,2.197-1.638l-2.388-9.287l7.558-6.146
	C58.615,18.647,58.082,17.01,56.719,16.873z M52.037,20.76l-4.85,3.943l1.532,5.959c0.169,0.876-0.712,1.489-1.41,1.051
	l-5.319-3.329l-5.371,3.329c-0.704,0.438-1.575-0.263-1.394-1.051l1.535-6.047l-4.789-3.86c-0.697-0.526-0.339-1.66,0.538-1.748
	l6.225-0.438l2.36-5.783c0.356-0.789,1.408-0.789,1.753,0l2.372,5.783l6.219,0.438C52.313,19.095,52.655,20.146,52.037,20.76z"/>
</svg>
