<?xml version="1.0" encoding="utf-8"?>
<!-- Generator: Adobe Illustrator 16.0.3, SVG Export Plug-In . SVG Version: 6.00 Build 0)  -->
<!DOCTYPE svg PUBLIC "-//W3C//DTD SVG 1.1//EN" "http://www.w3.org/Graphics/SVG/1.1/DTD/svg11.dtd">
<svg version="1.1" id="Layer_1" xmlns="http://www.w3.org/2000/svg" xmlns:xlink="http://www.w3.org/1999/xlink" x="0px" y="0px"
	 width="42px" height="42px" viewBox="0 0 42 42" enable-background="new 0 0 42 42" xml:space="preserve">
<path fill="#CF0652" d="M25.283,5.515c-0.041-0.013-0.079-0.022-0.122-0.033c-0.94-0.223-1.884,0.349-2.106,1.29
	c-0.224,0.94,0.358,1.883,1.299,2.106c0.03,0.007,0.088,0.031,0.088,0.031c6.353,1.541,11.074,7.25,11.074,14.075
	c0,8.009-6.49,14.5-14.5,14.5s-14.5-6.491-14.5-14.5c0-4.822,2.367-9.081,5.993-11.714v2.967c0,0.966,0.784,1.75,1.75,1.75
	c0.966,0,1.75-0.784,1.75-1.75v-7c0-0.966-0.784-1.75-1.75-1.75c0,0-6.034,0-7,0c-0.966,0-1.75,0.784-1.75,1.75
	c0,0.966,0.784,1.75,1.75,1.75h2.482c-4.093,3.296-6.723,8.333-6.723,13.998c0,9.941,8.059,18,18,18s18-8.059,18-18
	C39.018,14.516,33.162,7.433,25.283,5.515z"/>
</svg>
