<?xml version="1.0" encoding="utf-8"?>
<!-- Generator: Adobe Illustrator 16.0.3, SVG Export Plug-In . SVG Version: 6.00 Build 0)  -->
<!DOCTYPE svg PUBLIC "-//W3C//DTD SVG 1.1//EN" "http://www.w3.org/Graphics/SVG/1.1/DTD/svg11.dtd">
<svg version="1.1" id="Layer_1" xmlns="http://www.w3.org/2000/svg" xmlns:xlink="http://www.w3.org/1999/xlink" x="0px" y="0px"
	 width="60px" height="60px" viewBox="0 0 60 60" enable-background="new 0 0 60 60" xml:space="preserve">
<circle fill="#FFFFFF" cx="30" cy="30" r="30"/>
<path fill="#646464" d="M43.51,15.01h-7c-0.828,0-1.5,0.672-1.5,1.5c0,0.829,0.672,1.5,1.5,1.5c0,0,3.41,0,5.5,0
	c0,2.091,0,5.5,0,5.5c0,0.829,0.672,1.5,1.5,1.5s1.5-0.671,1.5-1.5c0,0,0-6.171,0-7C45.01,15.682,44.338,15.01,43.51,15.01z
	 M23.51,15.01h-7c-0.828,0-1.5,0.672-1.5,1.5c0,0.829,0,7,0,7c0,0.829,0.672,1.5,1.5,1.5c0.828,0,1.5-0.671,1.5-1.5
	c0,0,0-3.409,0-5.5c2.091,0,5.5,0,5.5,0c0.828,0,1.5-0.671,1.5-1.5C25.01,15.682,24.338,15.01,23.51,15.01z M43.51,35.01
	c-0.828,0-1.5,0.672-1.5,1.5c0,0,0,3.41,0,5.5c-2.09,0-5.5,0-5.5,0c-0.828,0-1.5,0.672-1.5,1.5s0.672,1.5,1.5,1.5h7
	c0.828,0,1.5-0.672,1.5-1.5s0-7,0-7C45.01,35.682,44.338,35.01,43.51,35.01z M23.51,42.01c0,0-3.409,0-5.5,0c0-2.09,0-5.5,0-5.5
	c0-0.828-0.672-1.5-1.5-1.5c-0.828,0-1.5,0.672-1.5,1.5c0,0,0,6.172,0,7s0.672,1.5,1.5,1.5h7c0.828,0,1.5-0.672,1.5-1.5
	S24.338,42.01,23.51,42.01z"/>
</svg>
