<?xml version="1.0" encoding="utf-8"?>
<!-- Generator: Adobe Illustrator 16.0.3, SVG Export Plug-In . SVG Version: 6.00 Build 0)  -->
<!DOCTYPE svg PUBLIC "-//W3C//DTD SVG 1.1//EN" "http://www.w3.org/Graphics/SVG/1.1/DTD/svg11.dtd">
<svg version="1.1" id="Layer_1" xmlns="http://www.w3.org/2000/svg" xmlns:xlink="http://www.w3.org/1999/xlink" x="0px" y="0px"
	 width="42px" height="42px" viewBox="0 0 42 42" enable-background="new 0 0 42 42" xml:space="preserve">
<path fill-rule="evenodd" clip-rule="evenodd" fill="#646464" d="M21.045,0C9.422,0,0,9.422,0,21.045
	C0,32.668,9.422,42.09,21.045,42.09c11.623,0,21.045-9.422,21.045-21.044C42.091,9.422,32.668,0,21.045,0z M21.045,38.033
	c-9.368,0-16.989-7.621-16.989-16.988c0-9.368,7.622-16.989,16.989-16.989c9.368,0,16.989,7.621,16.989,16.989
	C38.034,30.412,30.413,38.033,21.045,38.033z M29.23,15.425c0.702-0.703,0.702-1.842,0-2.545c-0.703-0.703-1.843-0.703-2.546,0
	c0,0-2.646,2.646-5.621,5.621c-2.782-2.782-5.279-5.279-5.576-5.577c-0.703-0.703-1.842-0.703-2.545,0
	c-0.703,0.703-0.703,1.842,0,2.545c0,0,2.624,2.624,5.576,5.576c-2.804,2.804-5.323,5.323-5.621,5.621
	c-0.703,0.703-0.703,1.844,0,2.545c0.703,0.703,1.843,0.703,2.545,0c0,0,2.646-2.646,5.621-5.62c2.782,2.782,5.28,5.28,5.577,5.577
	c0.703,0.703,1.843,0.703,2.545,0c0.703-0.703,0.703-1.844,0-2.545c0,0-2.624-2.624-5.576-5.577
	C26.413,18.242,28.933,15.723,29.23,15.425z"/>
</svg>
