<?xml version="1.0" encoding="utf-8"?>
<!-- Generator: Adobe Illustrator 16.0.3, SVG Export Plug-In . SVG Version: 6.00 Build 0)  -->
<!DOCTYPE svg PUBLIC "-//W3C//DTD SVG 1.1//EN" "http://www.w3.org/Graphics/SVG/1.1/DTD/svg11.dtd">
<svg version="1.1" id="Layer_1" xmlns="http://www.w3.org/2000/svg" xmlns:xlink="http://www.w3.org/1999/xlink" x="0px" y="0px"
	 width="60px" height="60px" viewBox="0 0 60 60" enable-background="new 0 0 60 60" xml:space="preserve">
<circle fill="#CF0652" cx="30" cy="30" r="30"/>
<path fill="#FFFFFF" d="M16.51,20.01c0,0,25.619,0,27,0s2.5-1.119,2.5-2.5c0-1.381-1.119-2.5-2.5-2.5h-27
	c-1.381,0-2.5,1.119-2.5,2.5C14.01,18.891,15.129,20.01,16.51,20.01z M43.51,27.01h-27c-1.381,0-2.5,1.119-2.5,2.5
	s1.119,2.5,2.5,2.5c0,0,25.619,0,27,0s2.5-1.119,2.5-2.5S44.891,27.01,43.51,27.01z M43.51,39.01h-27c-1.381,0-2.5,1.119-2.5,2.5
	s1.119,2.5,2.5,2.5c0,0,25.619,0,27,0s2.5-1.119,2.5-2.5S44.891,39.01,43.51,39.01z"/>
</svg>
