<?xml version="1.0" encoding="utf-8"?>
<!-- Generator: Adobe Illustrator 16.0.3, SVG Export Plug-In . SVG Version: 6.00 Build 0)  -->
<!DOCTYPE svg PUBLIC "-//W3C//DTD SVG 1.1//EN" "http://www.w3.org/Graphics/SVG/1.1/DTD/svg11.dtd">
<svg version="1.1" id="Layer_1" xmlns="http://www.w3.org/2000/svg" xmlns:xlink="http://www.w3.org/1999/xlink" x="0px" y="0px"
	 width="42px" height="42px" viewBox="0 0 42 42" enable-background="new 0 0 42 42" xml:space="preserve">
<path fill-rule="evenodd" clip-rule="evenodd" fill="#646464" d="M38.288,13.822l-11.694-0.824l-4.46-10.875
	c-0.648-1.483-2.625-1.483-3.296,0L14.4,12.998L2.694,13.822c-1.649,0.165-2.324,2.297-1.013,3.286l9.006,7.259L7.8,35.738
	c-0.341,1.481,1.297,2.801,2.621,1.977l10.1-6.262l10.003,6.262c1.313,0.824,2.97-0.33,2.652-1.977l-2.882-11.206l9.12-7.416
	C40.576,15.963,39.933,13.986,38.288,13.822z M24.915,21.992h-9c-0.828,0-1.5-0.672-1.5-1.5s0.672-1.5,1.5-1.5h9
	c0.828,0,1.5,0.671,1.5,1.5S25.743,21.992,24.915,21.992z"/>
</svg>
