<?xml version="1.0" encoding="utf-8"?>
<!-- Generator: Adobe Illustrator 16.0.3, SVG Export Plug-In . SVG Version: 6.00 Build 0)  -->
<!DOCTYPE svg PUBLIC "-//W3C//DTD SVG 1.1//EN" "http://www.w3.org/Graphics/SVG/1.1/DTD/svg11.dtd">
<svg version="1.1" id="Layer_1" xmlns="http://www.w3.org/2000/svg" xmlns:xlink="http://www.w3.org/1999/xlink" x="0px" y="0px"
	 width="60px" height="60px" viewBox="0 0 60 60" enable-background="new 0 0 60 60" xml:space="preserve">
<circle fill="#CF0652" cx="30" cy="30" r="30"/>
<path fill="#FFFFFF" d="M34.253,30.01l9.899-9.899c1.172-1.172,1.172-3.071,0-4.243c-1.172-1.171-3.07-1.171-4.242,0l-9.9,9.899
	l-9.899-9.899c-1.172-1.171-3.071-1.171-4.243,0c-1.171,1.172-1.171,3.071,0,4.243l9.899,9.899l-9.899,9.899
	c-1.171,1.172-1.171,3.071,0,4.243c1.172,1.171,3.071,1.171,4.243,0l9.899-9.899l9.9,9.899c1.172,1.171,3.07,1.171,4.242,0
	c1.172-1.172,1.172-3.071,0-4.243L34.253,30.01z"/>
</svg>
