<?xml version="1.0" encoding="utf-8"?>
<!-- Generator: Adobe Illustrator 16.0.3, SVG Export Plug-In . SVG Version: 6.00 Build 0)  -->
<!DOCTYPE svg PUBLIC "-//W3C//DTD SVG 1.1//EN" "http://www.w3.org/Graphics/SVG/1.1/DTD/svg11.dtd">
<svg version="1.1" id="Layer_1" xmlns="http://www.w3.org/2000/svg" xmlns:xlink="http://www.w3.org/1999/xlink" x="0px" y="0px"
	 width="60px" height="60px" viewBox="0 0 60 60" enable-background="new 0 0 60 60" xml:space="preserve">
<path fill-rule="evenodd" clip-rule="evenodd" fill="#B2B2B2" d="M0,0v2h60V0H0z"/>
<path fill-rule="evenodd" clip-rule="evenodd" fill="#FFFFFF" d="M39.51,19.01c0,0-3.551,0-7.5,0v-7.5c0-0.829-0.672-1.5-1.5-1.5
	c-0.828,0-1.5,0.671-1.5,1.5c0,0,0,3.551,0,7.5h-7.5c-0.829,0-1.5,0.671-1.5,1.5s0.671,1.5,1.5,1.5c0,0,3.551,0,7.5,0v7.5
	c0,0.829,0.672,1.5,1.5,1.5c0.828,0,1.5-0.671,1.5-1.5c0,0,0-3.551,0-7.5h7.5c0.828,0,1.5-0.671,1.5-1.5S40.338,19.01,39.51,19.01z"
	/>
</svg>
