<?xml version="1.0" encoding="utf-8"?>
<!-- Generator: Adobe Illustrator 16.0.3, SVG Export Plug-In . SVG Version: 6.00 Build 0)  -->
<!DOCTYPE svg PUBLIC "-//W3C//DTD SVG 1.1//EN" "http://www.w3.org/Graphics/SVG/1.1/DTD/svg11.dtd">
<svg version="1.1" id="Layer_1" xmlns="http://www.w3.org/2000/svg" xmlns:xlink="http://www.w3.org/1999/xlink" x="0px" y="0px"
	 width="42px" height="42px" viewBox="0 0 42 42" enable-background="new 0 0 42 42" xml:space="preserve">
<path fill-rule="evenodd" clip-rule="evenodd" fill="#646464" d="M21.058,0C9.433,0,0.009,9.424,0.009,21.048
	c0,11.625,9.424,21.048,21.048,21.048c11.624,0,21.048-9.423,21.048-21.048C42.105,9.424,32.682,0,21.058,0z M20.994,37.977
	c-9.369,0-16.991-7.622-16.991-16.992c0-9.369,7.623-16.991,16.991-16.991c9.369,0,16.992,7.623,16.992,16.991
	C37.986,30.354,30.363,37.977,20.994,37.977z M23.004,20.224v-8.729c0-1.104-0.895-2-2-2c-1.104,0-2,0.896-2,2v10.188h0.072
	l-0.042,0.035l6.627,7.896c0.709,0.846,1.971,0.956,2.816,0.246s0.957-1.971,0.248-2.817L23.004,20.224z"/>
</svg>
