<?xml version="1.0" encoding="utf-8"?>
<!-- Generator: Adobe Illustrator 16.0.3, SVG Export Plug-In . SVG Version: 6.00 Build 0)  -->
<!DOCTYPE svg PUBLIC "-//W3C//DTD SVG 1.1//EN" "http://www.w3.org/Graphics/SVG/1.1/DTD/svg11.dtd">
<svg version="1.1" id="Layer_1" xmlns="http://www.w3.org/2000/svg" xmlns:xlink="http://www.w3.org/1999/xlink" x="0px" y="0px"
	 width="42px" height="42px" viewBox="0 0 42 42" enable-background="new 0 0 42 42" xml:space="preserve">
<path fill-rule="evenodd" clip-rule="evenodd" fill="#646464" d="M41.106,8.569L21.36,4.7c-0.993-0.211-2.464-0.025-3.286,0.416
	L1.622,13.221c-0.332,0.178-0.5,0.369-0.525,0.549l-0.035-0.001c0,0-1.063,2.792-1.063,5.565c0,3.013,1.094,6.621,1.094,6.621
	l0.032-0.006c0.087,0.189,0.353,0.354,0.806,0.45l5.067,1.049v8.18l4.062-1.643l4.937,4V29.31l7.045,1.458
	c0.993,0.211,2.465,0.025,3.286-0.415l14.565-8.605c0.822-0.44,0.614-1.49-0.379-1.701l-0.718-0.125l-13.469,7.682
	c-0.821,0.44-2.293,0.627-3.286,0.416l-7.045-1.458v-2.512c0-1.104,0.895-1.999,2-1.999l-8.999-2c-1.083,0-1.961,0.863-1.994,1.939
	l-0.006-0.001v2.711l-3.041-0.63l-0.009,0.005c-0.056-0.017-0.583-0.182-0.73-0.774L3.2,23.321c-0.25-1.127-0.485-2.567-0.485-3.987
	c0-1.487,0.304-2.94,0.587-3.979c0.078-0.135,0.394-0.595,1.01-0.461l0-0.001l18.731,3.876c0.993,0.211,2.465,0.025,3.286-0.415
	l15.088-8.605C42.238,9.308,42.1,8.78,41.106,8.569z"/>
</svg>
