<?xml version="1.0" encoding="utf-8"?>
<!-- Generator: Adobe Illustrator 16.0.3, SVG Export Plug-In . SVG Version: 6.00 Build 0)  -->
<!DOCTYPE svg PUBLIC "-//W3C//DTD SVG 1.1//EN" "http://www.w3.org/Graphics/SVG/1.1/DTD/svg11.dtd">
<svg version="1.1" id="Layer_1" xmlns="http://www.w3.org/2000/svg" xmlns:xlink="http://www.w3.org/1999/xlink" x="0px" y="0px"
	 width="42px" height="42px" viewBox="0 0 42 42" enable-background="new 0 0 42 42" xml:space="preserve">
<path fill-rule="evenodd" clip-rule="evenodd" fill="#646464" d="M40.251,36.679L29.944,26.372c1.915-2.637,3.058-5.871,3.058-9.379
	c0-8.836-7.164-16-16-16s-16,7.164-16,16s7.164,16,16,16c3.517,0,6.759-1.148,9.4-3.072l10.304,10.304
	c0.979,0.979,2.566,0.979,3.546,0C41.229,39.245,41.229,37.658,40.251,36.679z M16.994,27.985c-6.075,0-11-4.925-11-11
	c0-6.075,4.925-11,11-11c6.075,0,11,4.925,11,11C27.994,23.061,23.069,27.985,16.994,27.985z"/>
</svg>
