<?xml version="1.0" encoding="utf-8"?>
<!-- Generator: Adobe Illustrator 16.0.3, SVG Export Plug-In . SVG Version: 6.00 Build 0)  -->
<!DOCTYPE svg PUBLIC "-//W3C//DTD SVG 1.1//EN" "http://www.w3.org/Graphics/SVG/1.1/DTD/svg11.dtd">
<svg version="1.1" id="Layer_1" xmlns="http://www.w3.org/2000/svg" xmlns:xlink="http://www.w3.org/1999/xlink" x="0px" y="0px"
	 width="42px" height="42px" viewBox="0 0 42 42" enable-background="new 0 0 42 42" xml:space="preserve">
<path fill-rule="evenodd" clip-rule="evenodd" fill="#646464" d="M14.404,21.036c0,1.927,0.171,3.824,0.482,5.683h12.229
	c0.312-1.859,0.482-3.756,0.482-5.683c0-1.887-0.164-3.745-0.463-5.566H14.867C14.568,17.291,14.404,19.149,14.404,21.036z
	 M15.893,1.716c-5.567,1.476-10.18,5.288-12.726,10.33h8.958C13.002,8.433,14.332,4.972,15.893,1.716z M26.405,12.046
	c-1.006-3.878-2.57-7.562-4.417-10.97c-0.324-0.016-0.648-0.035-0.976-0.035c-0.336,0-0.667,0.02-0.998,0.036
	c-1.847,3.408-3.412,7.091-4.417,10.969H26.405z M40.209,15.469h-9.646C30.845,17.294,31,19.151,31,21.035
	c0,1.924-0.162,3.822-0.456,5.684h9.638c0.533-1.801,0.83-3.704,0.83-5.678C41.012,19.105,40.723,17.24,40.209,15.469z
	 M38.857,12.046c-2.551-5.05-7.174-8.865-12.752-10.336c1.563,3.258,2.894,6.721,3.771,10.336H38.857z M15.603,30.046
	c1.007,3.874,2.572,7.555,4.417,10.96c0.33,0.016,0.658,0.035,0.992,0.035c0.326,0,0.647-0.02,0.97-0.035
	c1.846-3.405,3.411-7.085,4.418-10.96H15.603z M26.1,40.374c5.577-1.469,10.2-5.282,12.753-10.328h-8.98
	C28.993,33.659,27.662,37.119,26.1,40.374z M11.001,21.035c0-1.884,0.155-3.741,0.437-5.565H1.814
	c-0.513,1.771-0.803,3.636-0.803,5.572c0,1.974,0.297,3.877,0.83,5.678h9.615C11.164,24.856,11.001,22.959,11.001,21.035z
	 M3.171,30.046c2.549,5.039,7.162,8.848,12.728,10.321c-1.562-3.253-2.891-6.711-3.77-10.321H3.171z"/>
</svg>
