<?xml version="1.0" encoding="utf-8"?>
<!-- Generator: Adobe Illustrator 16.0.3, SVG Export Plug-In . SVG Version: 6.00 Build 0)  -->
<!DOCTYPE svg PUBLIC "-//W3C//DTD SVG 1.1//EN" "http://www.w3.org/Graphics/SVG/1.1/DTD/svg11.dtd">
<svg version="1.1" id="Layer_1" xmlns="http://www.w3.org/2000/svg" xmlns:xlink="http://www.w3.org/1999/xlink" x="0px" y="0px"
	 width="25px" height="25px" viewBox="0 0 25 25" enable-background="new 0 0 25 25" xml:space="preserve">
<circle fill-rule="evenodd" clip-rule="evenodd" fill="#FFFFFF" cx="12.5" cy="12.5" r="12.5"/>
<path fill-rule="evenodd" clip-rule="evenodd" fill="#CD0047" d="M14.621,12.484l4.95-4.95c0.586-0.586,0.586-1.536,0-2.122
	c-0.586-0.585-1.536-0.585-2.122,0l-4.949,4.95l-4.95-4.95c-0.586-0.585-1.536-0.585-2.122,0c-0.585,0.586-0.585,1.536,0,2.122
	l4.95,4.95l-4.95,4.95c-0.585,0.585-0.585,1.535,0,2.121c0.586,0.586,1.536,0.586,2.122,0l4.95-4.949l4.949,4.949
	c0.586,0.586,1.536,0.586,2.122,0s0.586-1.536,0-2.121L14.621,12.484z"/>
</svg>
