<?xml version="1.0" encoding="utf-8"?>
<!-- Generator: Adobe Illustrator 16.0.3, SVG Export Plug-In . SVG Version: 6.00 Build 0)  -->
<!DOCTYPE svg PUBLIC "-//W3C//DTD SVG 1.1//EN" "http://www.w3.org/Graphics/SVG/1.1/DTD/svg11.dtd">
<svg version="1.1" id="Layer_1" xmlns="http://www.w3.org/2000/svg" xmlns:xlink="http://www.w3.org/1999/xlink" x="0px" y="0px"
	 width="60px" height="60px" viewBox="0 0 60 60" enable-background="new 0 0 60 60" xml:space="preserve">
<circle fill="#FFFFFF" cx="30" cy="30" r="30"/>
<path fill="#646464" d="M47.01,27.01h-14v-14c0-1.657-1.342-3-3-3c-1.656,0-3,1.343-3,3v14h-14c-1.656,0-3,1.344-3,3
	c0,1.658,1.344,3,3,3h14v14c0,1.658,1.344,3,3,3c1.658,0,3-1.342,3-3v-14h14c1.658,0,3-1.342,3-3
	C50.01,28.354,48.668,27.01,47.01,27.01z"/>
</svg>
