<?xml version="1.0" encoding="utf-8"?>
<!-- Generator: Adobe Illustrator 16.0.3, SVG Export Plug-In . SVG Version: 6.00 Build 0)  -->
<!DOCTYPE svg PUBLIC "-//W3C//DTD SVG 1.1//EN" "http://www.w3.org/Graphics/SVG/1.1/DTD/svg11.dtd">
<svg version="1.1" id="Layer_1" xmlns="http://www.w3.org/2000/svg" xmlns:xlink="http://www.w3.org/1999/xlink" x="0px" y="0px"
	 width="22px" height="22px" viewBox="0 0 22 22" enable-background="new 0 0 22 22" xml:space="preserve">
<path fill="#B1B1B1" d="M21.554,4.323L11.2,2.295C10.68,2.185,9.908,2.282,9.478,2.514L0.852,6.763
	C0.677,6.856,0.589,6.956,0.576,7.051L0.558,7.05C0.558,7.05,0,8.515,0,9.968c0,1.581,0.574,3.472,0.574,3.472l0.016-0.003
	c0.047,0.1,0.186,0.186,0.424,0.235l2.656,0.551v4.289l2.13-0.862l2.589,2.098v-4.548l3.693,0.764
	c0.521,0.111,1.292,0.014,1.723-0.217l7.637-4.513c0.432-0.23,0.322-0.781-0.198-0.892l-0.376-0.065l-7.063,4.027
	c-0.431,0.231-1.202,0.329-1.723,0.219l-3.694-0.764V12.44c0-0.579,0.47-1.048,1.049-1.048l-4.719-1.048
	c-0.567,0-1.028,0.452-1.046,1.016H3.67v1.422l-1.596-0.331L2.07,12.454c-0.029-0.009-0.307-0.096-0.383-0.406l-0.009,0.011
	c-0.132-0.591-0.255-1.346-0.255-2.091c0-0.779,0.16-1.541,0.309-2.086c0.04-0.07,0.206-0.313,0.529-0.242l9.821,2.032
	c0.521,0.11,1.292,0.013,1.723-0.218l7.911-4.512C22.147,4.712,22.074,4.435,21.554,4.323z"/>
</svg>
