<?xml version="1.0" encoding="utf-8"?>
<!-- Generator: Adobe Illustrator 16.0.3, SVG Export Plug-In . SVG Version: 6.00 Build 0)  -->
<!DOCTYPE svg PUBLIC "-//W3C//DTD SVG 1.1//EN" "http://www.w3.org/Graphics/SVG/1.1/DTD/svg11.dtd">
<svg version="1.1" id="Layer_1" xmlns="http://www.w3.org/2000/svg" xmlns:xlink="http://www.w3.org/1999/xlink" x="0px" y="0px"
	 width="22px" height="22px" viewBox="0 0 22 22" enable-background="new 0 0 22 22" xml:space="preserve">
<path fill="#B2B2B2" d="M16.887,8.312h-0.264V5.075c0-2.784-2.256-5.041-5.04-5.041s-5.04,2.257-5.04,5.041v3.236H6.246
	c-1.237,0-2.24,1.004-2.24,2.24v9.257c0,1.237,1.003,2.241,2.24,2.241h10.641c1.237,0,2.24-1.004,2.24-2.241v-9.257
	C19.127,9.314,18.124,8.312,16.887,8.312z M8.186,5.034c0-1.877,1.521-3.399,3.398-3.399s3.398,1.522,3.398,3.399l-0.006,3.278H8.19
	L8.186,5.034z M12.704,15.861l-0.001,1.989c0,0.619-0.501,1.119-1.119,1.119c-0.617,0-1.119-0.501-1.119-1.119v-1.989
	c-0.666-0.388-1.119-1.102-1.119-1.929c0-1.237,1.002-2.241,2.239-2.241s2.239,1.004,2.239,2.241
	C13.824,14.76,13.371,15.475,12.704,15.861z"/>
</svg>
