<?xml version="1.0" encoding="utf-8"?>
<!-- Generator: Adobe Illustrator 16.0.3, SVG Export Plug-In . SVG Version: 6.00 Build 0)  -->
<!DOCTYPE svg PUBLIC "-//W3C//DTD SVG 1.1//EN" "http://www.w3.org/Graphics/SVG/1.1/DTD/svg11.dtd">
<svg version="1.1" id="Layer_1" xmlns="http://www.w3.org/2000/svg" xmlns:xlink="http://www.w3.org/1999/xlink" x="0px" y="0px"
	 width="22px" height="22px" viewBox="0 0 22 22" enable-background="new 0 0 22 22" xml:space="preserve">
<path fill="#B2B2B2" d="M12.016,10.568v-4.56c0-0.576-0.468-1.044-1.045-1.044c-0.576,0-1.045,0.468-1.045,1.044v5.322h0.038
	l-0.022,0.018l3.462,4.124c0.37,0.441,1.029,0.499,1.47,0.128c0.442-0.37,0.5-1.029,0.13-1.471L12.016,10.568z M10.999,0.006
	c-6.071,0-10.993,4.922-10.993,10.993c0,6.07,4.922,10.992,10.992,10.992c6.071,0,10.993-4.922,10.993-10.992
	C21.991,4.928,17.069,0.006,10.999,0.006z M10.966,19.84c-4.894,0-8.874-3.98-8.874-8.874c0-4.893,3.981-8.874,8.874-8.874
	s8.874,3.981,8.874,8.874S15.858,19.84,10.966,19.84z"/>
</svg>
